<?xml version="1.0" encoding="UTF-8"?>
<svg xmlns="http://www.w3.org/2000/svg" viewBox="0 0 120 120">
  <defs>
    <linearGradient id="g" x1="0" x2="1" y1="0" y2="1">
      <stop offset="0" stop-color="#2563eb"/>
      <stop offset="1" stop-color="#8b5cf6"/>
    </linearGradient>
  </defs>
  <rect width="120" height="120" rx="20" fill="url(#g)"/>
  <g transform="translate(30,26) scale(0.8)" fill="#fff">
    <path d="M18 6c0-3.3 2.7-6 6-6s6 2.7 6 6v1h4c1.1 0 2 .9 2 2v2c0 1.1-.9 2-2 2h-4v8h4c1.1 0 2 .9 2 2v2c0 1.1-.9 2-2 2h-4v1c0 3.3-2.7 6-6 6s-6-2.7-6-6v-1h-4c-1.1 0-2-.9-2-2v-2c0-1.1.9-2 2-2h4v-8h-4c-1.1 0-2-.9-2-2v-2c0-1.1.9-2 2-2h4V6z"/>
  </g>
</svg>
